<?xml version="1.0" encoding="UTF-8"?>
<svg version="1.1" xmlns="http://www.w3.org/2000/svg" width="300" height="300">
<path d="M0 0 C0.66386719 0.59941406 1.32773438 1.19882812 2.01171875 1.81640625 C25.42486529 23.8048177 38.89923909 58.22151122 40 90 C40.03996094 90.7528125 40.07992188 91.505625 40.12109375 92.28125 C41.14972444 127.61773941 27.04316554 161.94161004 3.2265625 187.640625 C2.49179688 188.41921875 1.75703125 189.1978125 1 190 C0.32710937 190.73734375 -0.34578125 191.4746875 -1.0390625 192.234375 C-20.49799044 212.78650114 -47.37491625 224.60882417 -75 229 C-76.21236328 229.19722656 -76.21236328 229.19722656 -77.44921875 229.3984375 C-110.84813218 233.71173522 -145.35860293 225.31994008 -172.5625 205.4375 C-177.92251178 201.18825561 -183.02619029 196.69303013 -188 192 C-188.79921875 191.27683594 -189.5984375 190.55367187 -190.421875 189.80859375 C-212.9298318 168.62674269 -227.63202544 136.30014176 -229.12426758 105.42919922 C-230.19807873 67.40365153 -219.48490209 32.36594328 -193.19140625 4.2890625 C-192.46824219 3.53367188 -191.74507812 2.77828125 -191 2 C-190.32839844 1.26523437 -189.65679687 0.53046875 -188.96484375 -0.2265625 C-166.99603283 -23.46833256 -134.42575489 -37.08925064 -102.71875 -38.93359375 C-63.23733109 -39.63861909 -28.84300308 -27.17236917 0 0 Z M-150 51 C-158.31805206 63.73577349 -156.79045442 78.20457709 -154.0234375 92.5234375 C-150.25252882 110.01896033 -139.83735029 126.75988678 -128 140 C-127.39027344 140.71414062 -126.78054687 141.42828125 -126.15234375 142.1640625 C-120.03356042 148.87336496 -112.13759089 153.67541294 -103.0625 155.0625 C-86.1568365 155.67969089 -70.24361204 145.81482428 -58 135 C-57.05382812 134.26136719 -56.10765625 133.52273437 -55.1328125 132.76171875 C-42.20638958 121.99208021 -31.19511258 103.63664269 -29 87 C-28.7097193 78.31682074 -31.36244701 71.58113574 -37.25 65.25 C-43.58652381 59.28140338 -50.83441645 56.65701998 -59.45703125 56.69921875 C-62.33505238 57.03962985 -64.57482808 57.89478299 -67.25 59 C-74.4656958 61.83365333 -82.76335817 62.70067852 -90.125 59.75 C-93.89444046 57.55643906 -96.53271308 54.30578567 -99.375 51.0625 C-105.07995206 44.59051197 -109.82371648 40.61662831 -118.57421875 39.57421875 C-130.6753779 39.14596742 -141.49341987 41.98097528 -150 51 Z " fill="#363741" transform="translate(245,55)"/>
<path d="M0 0 C2.46800047 1.15173355 4.04783565 2.04783565 6 4 C5.60208819 10.04030123 3.77244857 15.762462 2.125 21.5625 C-2.82024113 38.50849802 -2.82024113 38.50849802 -4 56 C-1.66928121 56.41870553 -1.66928121 56.41870553 1 56 C4.55963427 52.33708814 5.98824621 48.78673325 7.4375 43.9375 C7.64358887 43.25647217 7.84967773 42.57544434 8.06201172 41.8737793 C10.02949122 35.22888164 11.6695895 28.49495136 13.21264648 21.73999023 C14.25466994 17.33047888 15.34649561 13.76552213 18 10 C21.37234971 10.28102914 22.78639739 10.80371652 25.3125 13.125 C29.01263787 19.42893859 26.3508674 26.70246602 24.6875 33.375 C24.47416016 34.26960938 24.26082031 35.16421875 24.04101562 36.0859375 C22.80419676 41.16612484 21.36891464 46.09390313 19.58007812 51.00805664 C18.6839513 54.08528677 18.79683024 56.81700715 19 60 C21.48248124 59.66334085 21.48248124 59.66334085 24 58 C25.95823785 54.24599819 26.75696149 50.04869103 27.70703125 45.94921875 C30.26818182 34.9513369 30.26818182 34.9513369 34 31 C36.5625 30.4375 36.5625 30.4375 39 31 C40.625 32.05859375 40.625 32.05859375 42 34 C42.33600019 36.6456231 42.47507467 38.98027574 42.4375 41.625 C42.42920166 42.38063232 42.42090332 43.13626465 42.41235352 43.91479492 C41.82767597 63.9831754 33.65172814 92.17034119 20.7265625 107.73828125 C18.26284299 110.04652332 15.74128782 112.03079609 13 114 C12.02160156 114.74378906 11.04320312 115.48757812 10.03515625 116.25390625 C1.86043057 122.22580103 -6.80755817 126.7975469 -16 131 C-16.61069336 131.28504395 -17.22138672 131.57008789 -17.85058594 131.86376953 C-28.55200859 136.79014416 -39.44010965 139.08225419 -51 141 C-52.11503906 141.19207031 -53.23007813 141.38414062 -54.37890625 141.58203125 C-72.13505645 143.63155452 -94.86039084 143.71673141 -111 135 C-111 134.67 -111 134.34 -111 134 C-109.94425781 133.97812622 -109.94425781 133.97812622 -108.8671875 133.95581055 C-91.02831901 133.54389803 -74.71114245 132.78221869 -58 126 C-57.01 125.67 -56.02 125.34 -55 125 C-53.52480257 121.51316971 -53.72465957 117.7170958 -54 114 C-57.63306058 111.57795962 -59.31819023 111.76697109 -63.63671875 111.8046875 C-64.93544922 111.81113281 -66.23417969 111.81757813 -67.57226562 111.82421875 C-68.94401307 111.8409294 -70.31575786 111.85785929 -71.6875 111.875 C-73.07095718 111.88503326 -74.45442127 111.89415851 -75.83789062 111.90234375 C-79.22543452 111.92595033 -82.61263072 111.95887963 -86 112 C-85.67 111.34 -85.34 110.68 -85 110 C-82.29125977 109.63696289 -82.29125977 109.63696289 -78.69140625 109.47265625 C-77.38623047 109.40240234 -76.08105469 109.33214844 -74.73632812 109.25976562 C-72.66331809 109.15975305 -70.59019122 109.06373931 -68.5168457 108.97094727 C-54.85193411 108.48620343 -54.85193411 108.48620343 -42.4375 103.3125 C-40.24624847 99.78744319 -40.0661018 97.16441338 -40 93 C-41.51393778 90.88192553 -42.39596132 90.1090916 -44.97363281 89.64355469 C-45.70936523 89.65290039 -46.44509766 89.66224609 -47.203125 89.671875 C-48.42708984 89.67960937 -48.42708984 89.67960937 -49.67578125 89.6875 C-50.52527344 89.708125 -51.37476563 89.72875 -52.25 89.75 C-53.08402344 89.75515625 -53.91804688 89.7603125 -54.77734375 89.765625 C-58.40534325 89.81118857 -61.86953063 89.98102531 -65.46484375 90.50390625 C-70.09522506 91.15369457 -74.64290264 91.18410393 -79.3125 91.1875 C-80.21806641 91.19974609 -81.12363281 91.21199219 -82.05664062 91.22460938 C-82.92095703 91.22654297 -83.78527344 91.22847656 -84.67578125 91.23046875 C-85.8500769 91.23663208 -85.8500769 91.23663208 -87.0480957 91.24291992 C-89 91 -89 91 -91 89 C-88.0329604 87.0219736 -86.88083771 86.65303836 -83.484375 86.21875 C-82.11792847 86.04098022 -82.11792847 86.04098022 -80.72387695 85.85961914 C-79.74249756 85.74094482 -78.76111816 85.62227051 -77.75 85.5 C-76.7396167 85.37036865 -75.7292334 85.2407373 -74.68823242 85.10717773 C-69.29954067 84.43832567 -63.9202569 83.89154944 -58.50390625 83.50390625 C-57.46588867 83.42785156 -56.42787109 83.35179687 -55.35839844 83.2734375 C-53.3614683 83.13514417 -51.36330381 83.01345243 -49.36425781 82.91015625 C-44.03120916 82.59566651 -44.03120916 82.59566651 -39.41796875 80.12109375 C-36.75306814 76.13475482 -36.60196915 72.69676407 -37 68 C-38.27418043 65.96180423 -39.601834 63.95522623 -41 62 C-40.20335937 61.40832031 -39.40671875 60.81664062 -38.5859375 60.20703125 C-37.51555932 59.40894225 -36.44525054 58.61076016 -35.375 57.8125 C-34.33085937 57.03519531 -33.28671875 56.25789063 -32.2109375 55.45703125 C-31.13979241 54.63911004 -30.06946889 53.82011171 -29 53 C-28.01257813 52.25234375 -27.02515625 51.5046875 -26.0078125 50.734375 C-22.17564583 47.4969415 -19.38716536 43.50825824 -16.5 39.4375 C-15.92975098 38.63900635 -15.35950195 37.8405127 -14.77197266 37.01782227 C-6.75165618 25.59261104 -1.11402736 14.03674469 0 0 Z " fill="#E81B35" transform="translate(219,139)"/>
<path d="M0 0 C-1.34578125 0.78310547 -1.34578125 0.78310547 -2.71875 1.58203125 C-31.2473048 17.5365969 -31.2473048 17.5365969 -54 40 C-54.22872102 43.78152089 -53.78242359 47.03701711 -51.375 50 C-47.70093586 51.54697437 -45.99903404 51.77400659 -42 51 C-38.38899921 48.29174941 -35.244225 45.13030564 -32 42 C-30.41995032 40.61776953 -28.81722141 39.26080124 -27.1875 37.9375 C-26.50042969 37.36902344 -25.81335938 36.80054688 -25.10546875 36.21484375 C-22.56419245 34.74854147 -20.88736557 34.76316548 -18 35 C-17.67 35.99 -17.34 36.98 -17 38 C-17.7528125 38.57105469 -18.505625 39.14210937 -19.28125 39.73046875 C-25.77310492 44.67629852 -32.19985751 49.70144084 -38.5625 54.8125 C-39.24054688 55.35092529 -39.91859375 55.88935059 -40.6171875 56.4440918 C-46.91279776 61.28713467 -46.91279776 61.28713467 -50.53125 68.09765625 C-50.47747227 71.47893103 -50.19659752 73.68998083 -48.375 76.5625 C-46.07858567 78.21068585 -46.07858567 78.21068585 -43.3125 78.125 C-34.29202292 75.06144175 -27.39191737 68.00007354 -20.3203125 61.859375 C-10.08860294 53 -10.08860294 53 -6 53 C-7.35428461 56.10412761 -8.77134253 57.91475724 -11.375 60.0625 C-14.9510504 63.08789046 -18.43297993 66.19872211 -21.875 69.375 C-26.53110036 73.66209574 -31.2210928 77.90849668 -35.94140625 82.125 C-36.62074219 82.74375 -37.30007812 83.3625 -38 84 C-38.60714844 84.433125 -39.21429688 84.86625 -39.83984375 85.3125 C-41.33401871 87.10125087 -41.33401871 87.10125087 -40.7109375 90.19921875 C-40.47632813 91.45347656 -40.24171875 92.70773438 -40 94 C-39.89287763 95.9143164 -39.78669439 97.82884398 -39.71020508 99.74462891 C-38.88757194 119.70939297 -35.04991192 136.90212492 -24.07177734 153.81518555 C-20.22609764 159.82206675 -18.17255307 165.82879324 -19 173 C-20.5625 174.9375 -20.5625 174.9375 -23 176 C-29.13005488 176.64526893 -29.13005488 176.64526893 -31.57299805 174.83325195 C-33.42354741 172.45587382 -34.25973801 170.13202327 -35.26953125 167.29296875 C-35.88622681 165.58560547 -35.88622681 165.58560547 -36.51538086 163.84375 C-36.94343018 162.6371875 -37.37147949 161.430625 -37.8125 160.1875 C-38.70326712 157.73217831 -39.59647539 155.2777408 -40.4921875 152.82421875 C-40.92241211 151.64520996 -41.35263672 150.46620117 -41.79589844 149.25146484 C-43.26025795 145.29721909 -44.79042694 141.38149551 -46.4375 137.5 C-46.86933594 136.4790625 -47.30117187 135.458125 -47.74609375 134.40625 C-48.9684613 132.06052287 -49.86378261 130.55361265 -52 129 C-53.32 129 -54.64 129 -56 129 C-58.15757424 133.31514847 -57.39725953 137.64415449 -56.09082031 142.10302734 C-54.83096754 145.65801207 -53.4970153 149.17430931 -52.125 152.6875 C-51.66480469 153.89728516 -51.20460937 155.10707031 -50.73046875 156.35351562 C-48.38106993 162.53462116 -48.38106993 162.53462116 -45.86279297 168.64770508 C-44.69275934 171.83765245 -44.80583019 174.63439002 -45 178 C-46 179 -46 179 -49.25 179.3125 C-53.70340885 178.9413826 -54.84653812 178.0777788 -58 175 C-59.51953125 172.06640625 -59.51953125 172.06640625 -60.8125 168.5625 C-61.0511377 167.93013428 -61.28977539 167.29776855 -61.53564453 166.64624023 C-62.06751511 165.23391049 -62.59286833 163.81911472 -63.11279297 162.40234375 C-64.10785182 159.70796315 -65.13189181 157.0256297 -66.16015625 154.34375 C-68.11921847 149.2338448 -70.06379071 144.1186037 -72 139 C-73.32 139 -74.64 139 -76 139 C-76.31406192 144.92137572 -75.51934532 149.03494341 -73 154.4375 C-70.48636098 160.21404276 -69.23829919 164.68876473 -70 171 C-71 172 -71 172 -74.0625 172.75 C-77.04756606 172.70106449 -77.88579873 172.11420127 -80.03125 169.96875 C-90.71606759 155.66753261 -95.93518208 139.46171573 -99.75 122.25 C-99.96084229 121.30406982 -100.17168457 120.35813965 -100.38891602 119.38354492 C-102.55964111 109.15648381 -103.90345954 100.44581058 -100.5625 90.375 C-100.28954102 89.51817627 -100.01658203 88.66135254 -99.73535156 87.77856445 C-92.86544553 66.96690343 -81.86297844 49.84369362 -66.39453125 34.3984375 C-65.05231154 33.05402819 -63.72177866 31.69673873 -62.4375 30.296875 C-51.42482701 18.44628124 -17.16478623 -5.72159541 0 0 Z " fill="#FCD47D" transform="translate(125,24)"/>
<path d="M0 0 C0.99 0.495 0.99 0.495 2 1 C2.66631398 3.8348631 3.2301346 6.63782908 3.75 9.5 C6.94303275 25.69116509 12.44509658 45.32968053 23.95703125 57.7109375 C27.96478121 60.2397281 32.46464827 59.59049787 37 59 C37.86681145 50.52451025 36.36223833 44.12273568 33.04638672 36.43359375 C31.50239115 32.78530358 30.78027682 30.7765401 32 27 C32.31227539 27.87736816 32.62455078 28.75473633 32.94628906 29.65869141 C34.11768152 32.9374631 35.2963724 36.21342094 36.47998047 39.48779297 C36.98907944 40.90080894 37.49531556 42.31486 37.99853516 43.72998047 C38.7257396 45.77335296 39.46343452 47.81268168 40.203125 49.8515625 C40.64301758 51.07697754 41.08291016 52.30239258 41.53613281 53.56494141 C44.14921459 59.69670603 47.01279594 63.88665389 53 67 C56.67910266 67.58865643 58.26282772 67.45364448 61.4375 65.5 C63.66059521 61.94304767 62.81490503 58.92458886 62 55 C61.17686625 52.54300282 60.26554909 50.11412774 59.27734375 47.71875 C58.7335276 46.36856866 58.1899139 45.01830575 57.64648438 43.66796875 C56.79283984 41.57964536 55.93472298 39.49328972 55.07202148 37.40869141 C54.23276821 35.37081291 53.41068082 33.32660218 52.58984375 31.28125 C52.09347412 30.07533203 51.59710449 28.86941406 51.08569336 27.62695312 C49.83670856 23.4544957 49.80249005 20.32555721 50 16 C53 17 53 17 54.15380859 18.66992188 C58.60267333 27.80435501 62.00228954 37.34206326 65.49414062 46.87207031 C66.33400708 49.15753084 67.18576214 51.43827773 68.0390625 53.71875 C68.2922525 54.42076538 68.5454425 55.12278076 68.80630493 55.84606934 C70.14726218 59.41021732 70.73995715 60.8266381 74 63 C78.21329709 63.60753535 81.99175913 63.35708531 86 61.9375 C88.81770554 59.20784776 88.78386644 56.81835954 89 53 C89.66 53.66 90.32 54.32 91 55 C91.69222656 55.68255859 91.69222656 55.68255859 92.3984375 56.37890625 C93.53388402 57.52819968 94.64078109 58.70601899 95.7265625 59.90234375 C102.83160531 67.5190666 110.81053477 72.40016381 121.27734375 73.2734375 C131.71611203 73.56309382 139.82849856 71.72562043 149.203125 66.85546875 C151.90362533 65.56979577 154.05991546 65.68722505 157 66 C158.875 67.125 158.875 67.125 160 69 C160.5456696 72.58582881 160.31378571 74.43141923 158.5559082 77.61669922 C154.85681049 81.06598681 151.57941143 80.96474119 146.66796875 81.2578125 C145.75799637 81.33240692 144.84802399 81.40700134 143.91047668 81.4838562 C141.00403132 81.71942435 138.09654319 81.92427674 135.1875 82.125 C132.28970724 82.33665145 129.39285962 82.55512255 126.49665833 82.78756714 C124.6967732 82.93087487 122.89584905 83.06184654 121.09403992 83.17849731 C115.7974679 83.58636975 111.71034575 84.48599668 107 87 C105.95710245 89.06890419 105.95710245 89.06890419 106 91 C114.02855631 96.48256368 123.62434326 93.98758647 132.76342773 92.72094727 C140.11737954 91.75607642 147.6006908 91.37262715 155 92 C155.66 92.66 156.32 93.32 157 94 C156.90826205 97.39430403 156.03455417 98.95356783 154 101.6875 C146.70233627 107.31278246 135.89689226 106.55830392 127.0625 107.0625 C124.44883656 107.21475531 121.83578257 107.3735884 119.22265625 107.53515625 C117.50187866 107.63389038 117.50187866 107.63389038 115.74633789 107.73461914 C113.04035668 107.8301918 113.04035668 107.8301918 111 109 C111.33 110.65 111.66 112.3 112 114 C113.30203369 113.98428955 113.30203369 113.98428955 114.63037109 113.96826172 C117.84699528 113.93420284 121.06352767 113.90911233 124.28027344 113.89013672 C125.67320781 113.88007123 127.06612102 113.86641766 128.45898438 113.84912109 C130.4595436 113.8248978 132.46025615 113.81459186 134.4609375 113.8046875 C136.26763916 113.78897705 136.26763916 113.78897705 138.11083984 113.77294922 C141 114 141 114 143 116 C143 118.875 143 118.875 142 122 C137.46635839 125.67573712 133.19557276 127.01292194 127.625 128.1875 C126.90828125 128.35185547 126.1915625 128.51621094 125.453125 128.68554688 C113.55540411 131.33783664 101.91370987 131.19318578 89.78076172 131.02832031 C87.53232599 131.00542141 85.28349472 131.02367593 83.03515625 131.0546875 C63.95240736 130.72445452 46.28794832 112.5693281 33.71484375 99.65234375 C21.71603893 86.54382288 12.72682235 70.77746845 7 54 C6.63132812 52.97003906 6.26265625 51.94007813 5.8828125 50.87890625 C0.00936594 34.05169621 -0.15966214 17.63898147 0 0 Z " fill="#F5A670" transform="translate(20,139)"/>
<path d="M0 0 C17.0987219 4.61321222 30.76750431 17.21014105 43.20703125 29.17578125 C44.98301683 30.85400616 46.80185609 32.47529636 48.62890625 34.09765625 C57.47143982 42.14208975 61.86876766 49.28053971 64.91015625 60.78515625 C65.11318359 61.44418945 65.31621094 62.10322266 65.52539062 62.78222656 C72.48493568 85.3842822 71.29529313 113.49433408 63.91015625 135.78515625 C63.52601563 137.04328125 63.141875 138.30140625 62.74609375 139.59765625 C57.93248501 154.26770193 50.61694875 167.78698336 40.91015625 179.78515625 C40.25015625 180.11515625 39.59015625 180.44515625 38.91015625 180.78515625 C40.60994194 175.65300588 42.3386567 170.53270538 44.1015625 165.421875 C44.89209398 163.1055257 45.68245523 160.7891183 46.47265625 158.47265625 C46.87162109 157.32603516 47.27058594 156.17941406 47.68164062 154.99804688 C51.7395945 143.02742168 55.82962399 129.0838256 50.91015625 116.78515625 C48.75118343 114.47728875 47.51026661 113.89017556 44.41015625 113.34765625 C40.95701176 113.95195654 40.01235591 114.98222337 37.91015625 117.78515625 C36.73350872 120.42004218 35.82516905 123.04011785 34.91015625 125.78515625 C33.66957976 122.25238876 34.19605923 120.1712476 35.34765625 116.66015625 C37.01425078 110.88108542 38.57051481 104.62035068 36.078125 98.86328125 C34.62353799 96.57516686 33.35403086 95.00709355 30.91015625 93.78515625 C26.86771652 93.32922064 26.86771652 93.32922064 23.3359375 94.96484375 C19.16783571 100.28631069 18.1812805 108.52369561 16.68359375 115.03125 C16.47202637 115.94922363 16.26045898 116.86719727 16.04248047 117.81298828 C15.62975431 119.6305769 15.22725381 121.45052646 14.83642578 123.27294922 C13.55715782 128.97014173 11.71963648 133.66023574 8.91015625 138.78515625 C8.25015625 138.78515625 7.59015625 138.78515625 6.91015625 138.78515625 C6.28123961 129.91044369 8.62496579 121.84640087 10.84765625 113.34765625 C11.22553944 111.86416889 11.60250018 110.38044624 11.97851562 108.89648438 C14.72068419 98.16410037 14.72068419 98.16410037 15.91015625 95.78515625 C16.41085946 92.41158291 16.41085946 92.41158291 15.91015625 88.78515625 C13.45921397 85.8042805 11.11487627 83.92163627 7.91015625 81.78515625 C6.98828125 79.46484375 6.98828125 79.46484375 6.16015625 76.66015625 C3.26054803 68.38328949 -0.97565034 63.65227045 -8.65234375 59.41015625 C-13.22915096 57.23560357 -16.86940776 56.54705111 -21.90234375 56.28515625 C-31.2262089 55.32489107 -36.31473482 48.88731919 -42.46435547 42.42773438 C-44.50483786 40.36579902 -46.72992702 38.61427652 -49.02734375 36.84765625 C-51.82287013 34.43056357 -52.05231232 33.95549119 -52.90234375 30.09765625 C-52.08984375 26.78515625 -52.08984375 26.78515625 -49.90234375 24.34765625 C-46.81848168 22.63439954 -45.53883234 22.44982422 -42.08984375 22.78515625 C-40.15551758 23.78808594 -40.15551758 23.78808594 -38.296875 25.20703125 C-37.59280518 25.73264648 -36.88873535 26.25826172 -36.16333008 26.79980469 C-35.41720459 27.3724707 -34.6710791 27.94513672 -33.90234375 28.53515625 C-32.29997514 29.72508136 -30.69575313 30.91251406 -29.08984375 32.09765625 C-27.85621094 33.01224609 -27.85621094 33.01224609 -26.59765625 33.9453125 C-22.58598722 36.88845287 -18.51334302 39.73292459 -14.40234375 42.53515625 C-13.67313721 43.04788086 -12.94393066 43.56060547 -12.19262695 44.08886719 C-7.76648398 47.08357886 -4.47086634 48.59174337 0.91015625 48.78515625 C2.14544143 47.75090716 2.14544143 47.75090716 2.22265625 45.53515625 C1.79913178 41.8081409 0.45081104 40.54532361 -2.08984375 37.78515625 C-4.4539728 35.90954907 -6.94437695 34.25478036 -9.46484375 32.59765625 C-10.89266674 31.63781813 -12.31973446 30.67685565 -13.74609375 29.71484375 C-14.46667969 29.23112305 -15.18726563 28.74740234 -15.9296875 28.24902344 C-19.31103909 25.95759214 -22.6413902 23.59699044 -25.96484375 21.22265625 C-26.55313965 20.80540283 -27.14143555 20.38814941 -27.74755859 19.95825195 C-30.01693463 18.33645209 -32.11357605 16.76142395 -34.08984375 14.78515625 C-33.90234375 12.28515625 -33.90234375 12.28515625 -33.08984375 9.78515625 C-29.36881759 7.30447214 -26.40272853 7.16497639 -22.08984375 7.78515625 C-18.80859375 9.33203125 -18.80859375 9.33203125 -15.58984375 11.53515625 C-15.005979 11.92622559 -14.42211426 12.31729492 -13.82055664 12.72021484 C-10.38692088 15.05698845 -7.08355515 17.54150102 -3.8046875 20.08984375 C-3.09183594 20.6405957 -2.37898438 21.19134766 -1.64453125 21.75878906 C-0.25322252 22.8439842 1.12623192 23.94458394 2.4921875 25.06152344 C6.22053963 28.14493395 6.22053963 28.14493395 10.875 28.62109375 C11.88240234 28.20730469 11.88240234 28.20730469 12.91015625 27.78515625 C12.54138718 25.10426366 12.10699182 23.97380829 10.125 22.07421875 C9.37347656 21.52507812 8.62195313 20.9759375 7.84765625 20.41015625 C7.038125 19.80816406 6.22859375 19.20617187 5.39453125 18.5859375 C4.5746875 17.99167969 3.75484375 17.39742187 2.91015625 16.78515625 C-8.86799055 8.11627548 -8.86799055 8.11627548 -9.52734375 4.16015625 C-9.38296875 3.37640625 -9.23859375 2.59265625 -9.08984375 1.78515625 C-5.70407275 -0.47202442 -3.96637081 -0.56109636 0 0 Z " fill="#88B6E0" transform="translate(211.08984375,53.21484375)"/>
<path d="M0 0 C34.5647176 -0.40985831 68.45202951 11.35300873 93.5 35.5625 C94.39203125 36.43390625 95.2840625 37.3053125 96.203125 38.203125 C96.99203125 38.93015625 97.7809375 39.6571875 98.59375 40.40625 C103.1664112 44.72309799 106.97697942 49.3638463 110.640625 54.453125 C111.06617676 55.04391846 111.49172852 55.63471191 111.93017578 56.2434082 C114.16854696 59.44425181 115.93141308 62.50612641 117.203125 66.203125 C110.98340669 60.92988556 110.98340669 60.92988556 108.0390625 58.1875 C95.82154154 46.8280658 79.09044544 32.19507646 61.703125 30.953125 C58.29718528 31.00101403 58.29718528 31.00101403 55.765625 32.265625 C53.90038912 34.23324824 53.90038912 34.23324824 53.765625 37.578125 C54.21359583 41.28988328 55.0289272 43.21360302 57.203125 46.203125 C53.89781282 45.06692394 51.37774923 43.61159692 48.578125 41.578125 C43.66499563 38.43035961 38.87889615 38.23897157 33.203125 39.203125 C30.29671782 40.52210056 30.29671782 40.52210056 29.203125 43.203125 C28.80497864 46.67753115 28.80497864 46.67753115 30.203125 50.203125 C36.514148 56.24905083 43.89589616 60.79637112 51.19726562 65.54882812 C56.79824779 69.27898257 61.10702513 72.84987475 65.203125 78.203125 C61.50097656 79.32519531 61.50097656 79.32519531 58.8203125 78.2265625 C50.69327964 73.34108121 43.04103004 67.90112408 35.40234375 62.2890625 C34.69561523 61.77110107 33.98888672 61.25313965 33.26074219 60.71948242 C31.91157842 59.72521852 30.56822111 58.72301628 29.23144531 57.7121582 C26.19152899 55.4507276 24.38960539 54.23206161 20.578125 53.640625 C15.92266489 54.41653502 13.69699347 56.30183786 10.828125 59.953125 C9.79364754 63.67724387 10.34988271 66.42448056 11.203125 70.203125 C13.03801227 71.2707719 13.03801227 71.2707719 15.203125 72.203125 C16.61247795 73.38942718 17.97995645 74.62646411 19.3125 75.8984375 C20.06660156 76.61386719 20.82070312 77.32929687 21.59765625 78.06640625 C22.37496094 78.81277344 23.15226562 79.55914062 23.953125 80.328125 C24.74589844 81.08222656 25.53867188 81.83632812 26.35546875 82.61328125 C28.30872608 84.4724057 30.2577332 86.33577729 32.203125 88.203125 C29.203125 89.203125 29.203125 89.203125 27.2487793 88.43041992 C26.51570557 88.01896729 25.78263184 87.60751465 25.02734375 87.18359375 C24.2060498 86.73910889 23.38475586 86.29462402 22.53857422 85.83666992 C21.66475098 85.3594751 20.79092773 84.88228027 19.890625 84.390625 C12.45537004 80.47265833 6.60952983 78.28169707 -1.7890625 77.62890625 C-5.00917095 77.17307272 -6.80049056 76.26784967 -9.546875 74.578125 C-17.42097955 70.10868335 -29.19893888 71.109416 -37.796875 73.203125 C-34.83437849 69.12969229 -31.41328148 65.99746334 -27.6015625 62.75390625 C-25.71976246 61.17631491 -25.71976246 61.17631491 -23.796875 59.203125 C-24.1153927 57.09491703 -24.1153927 57.09491703 -24.796875 55.203125 C-28.84592357 54.72604677 -30.531511 55.03414018 -34.0234375 57.2578125 C-35.16842899 58.18304463 -36.30076441 59.12409615 -37.421875 60.078125 C-38.02507568 60.57119141 -38.62827637 61.06425781 -39.24975586 61.57226562 C-41.11212884 63.10061678 -42.95618185 64.6487619 -44.796875 66.203125 C-46.46898351 67.60541707 -48.14188751 69.0067412 -49.81591797 70.40673828 C-51.27590594 71.63301733 -52.72615741 72.87086142 -54.17578125 74.109375 C-60.34046917 79.03377548 -60.34046917 79.03377548 -64.484375 79.515625 C-66.796875 79.203125 -66.796875 79.203125 -68.796875 77.203125 C-69.27358641 73.62778941 -69.22864227 71.83520737 -67.171875 68.82421875 C-64.49872658 65.87408291 -61.57908201 63.47579244 -58.421875 61.078125 C-57.81770752 60.60874512 -57.21354004 60.13936523 -56.59106445 59.65576172 C-53.35270261 57.14246863 -50.08657691 54.66961057 -46.80078125 52.21875 C-46.16124512 51.73422363 -45.52170898 51.24969727 -44.86279297 50.75048828 C-43.63480421 49.82063872 -42.39838404 48.90179353 -41.15283203 47.99560547 C-38.57567741 46.03422456 -36.95989771 44.62736169 -35.78515625 41.5703125 C-35.5810006 38.93048102 -35.5810006 38.93048102 -37.796875 36.203125 C-44.02004755 36.55327793 -47.21395166 38.49019173 -51.921875 42.453125 C-52.51613281 42.93136719 -53.11039063 43.40960938 -53.72265625 43.90234375 C-56.50312067 46.16722537 -59.05166566 48.46403351 -61.5625 51.03515625 C-63.796875 53.203125 -63.796875 53.203125 -66.421875 53.640625 C-68.796875 53.203125 -68.796875 53.203125 -71.796875 51.203125 C-72.484375 48.078125 -72.484375 48.078125 -71.796875 44.203125 C-66.9850458 38.14088456 -60.54632254 33.45415929 -54.359375 28.890625 C-53.48901611 28.24399902 -52.61865723 27.59737305 -51.72192383 26.93115234 C-44.2831981 21.45753907 -36.66619274 16.32900138 -28.81835938 11.46289062 C-26.76222741 10.18153303 -24.72484821 8.87347239 -22.6875 7.5625 C-21.37062283 6.73305393 -20.05294835 5.90487199 -18.734375 5.078125 C-18.15131592 4.69930176 -17.56825684 4.32047852 -16.9675293 3.93017578 C-11.3533192 0.48306525 -6.39018534 0.34186177 0 0 Z " fill="#ABD5D7" transform="translate(145.796875,19.796875)"/>
<path d="M0 0 C10.02899044 1.36489219 19.10476873 6.37526693 28 11 C25.27976205 13.72023795 23.17378858 13.70668815 19.4296875 14.01171875 C12.66174096 13.97907592 8.76171287 11.05784952 4 6.4375 C0 2.32263514 0 2.32263514 0 0 Z " fill="#85B0D9" transform="translate(146,100)"/>
<path d="M0 0 C0.99 0 1.98 0 3 0 C1.54744301 3.82946843 -0.42895561 5.12050295 -4 7 C-2.79618552 4.50638429 -1.54571278 2.31856917 0 0 Z " fill="#E8C576" transform="translate(116,77)"/>
</svg>
